<svg width="990" height="600" viewBox="0 0 990 600" fill="none" xmlns="http://www.w3.org/2000/svg">
<rect width="990" height="600" fill="#F3F3F3"/>
<g filter="url(#filter0_d_25_29)">
<rect x="75" y="375" width="500" height="175" fill="black"/>
</g>
<g filter="url(#filter1_i_25_29)">
<rect x="95" y="400" width="460" height="125" fill="url(#paint0_radial_25_29)"/>
</g>
<g filter="url(#filter2_d_25_29)">
<circle cx="697" cy="420" r="45" fill="#10CB00"/>
</g>
<g filter="url(#filter3_d_25_29)">
<circle cx="864" cy="420" r="45" fill="#EDE300"/>
</g>
<path d="M666.505 511.6C666.505 513.367 666.088 515.033 665.255 516.6C664.422 518.167 663.088 519.45 661.255 520.45C659.422 521.417 657.072 521.9 654.205 521.9H647.905V536H642.205V501.25H654.205C656.872 501.25 659.122 501.717 660.955 502.65C662.822 503.55 664.205 504.783 665.105 506.35C666.038 507.917 666.505 509.667 666.505 511.6ZM654.205 517.25C656.372 517.25 657.988 516.767 659.055 515.8C660.122 514.8 660.655 513.4 660.655 511.6C660.655 507.8 658.505 505.9 654.205 505.9H647.905V517.25H654.205ZM677.641 531.4H689.391V536H671.941V501.25H677.641V531.4ZM715.108 528.9H700.558L698.058 536H692.108L704.558 501.2H711.158L723.608 536H717.608L715.108 528.9ZM713.508 524.25L707.858 508.1L702.158 524.25H713.508ZM754.771 501.25L743.271 523.4V536H737.571V523.4L726.021 501.25H732.371L740.421 518.3L748.471 501.25H754.771Z" fill="black"/>
<path d="M192.205 479.52C192.546 480.885 192.717 482.592 192.717 484.64C192.717 486.603 192.546 488.309 192.205 489.76H187.085C187.426 491.125 187.597 492.832 187.597 494.88C187.597 496.843 187.426 498.549 187.085 500H161.485C161.144 498.549 160.973 496.843 160.973 494.88C160.973 492.832 161.144 491.125 161.485 489.76H156.365C156.024 488.309 155.853 486.603 155.853 484.64C155.853 482.592 156.024 480.885 156.365 479.52H151.245C150.904 478.069 150.733 476.363 150.733 474.4C150.733 472.352 150.904 470.645 151.245 469.28C150.904 467.829 150.733 466.123 150.733 464.16C150.733 462.112 150.904 460.405 151.245 459.04C150.904 457.589 150.733 455.883 150.733 453.92C150.733 451.872 150.904 450.165 151.245 448.8H156.365C156.024 447.349 155.853 445.643 155.853 443.68C155.853 441.632 156.024 439.925 156.365 438.56H161.485C161.144 437.109 160.973 435.403 160.973 433.44C160.973 431.392 161.144 429.685 161.485 428.32H187.085C187.426 429.685 187.597 431.392 187.597 433.44C187.597 435.403 187.426 437.109 187.085 438.56H192.205C192.546 439.925 192.717 441.632 192.717 443.68C192.717 445.643 192.546 447.349 192.205 448.8H181.965C181.624 447.349 181.453 445.643 181.453 443.68C181.453 441.632 181.624 439.925 181.965 438.56H166.605C166.946 439.925 167.117 441.632 167.117 443.68C167.117 445.643 166.946 447.349 166.605 448.8H161.485C161.826 450.165 161.997 451.872 161.997 453.92C161.997 455.883 161.826 457.589 161.485 459.04C161.826 460.405 161.997 462.112 161.997 464.16C161.997 466.123 161.826 467.829 161.485 469.28C161.826 470.645 161.997 472.352 161.997 474.4C161.997 476.363 161.826 478.069 161.485 479.52H166.605C166.946 480.885 167.117 482.592 167.117 484.64C167.117 486.603 166.946 488.309 166.605 489.76H181.965C181.624 488.309 181.453 486.603 181.453 484.64C181.453 482.592 181.624 480.885 181.965 479.52H192.205ZM243.967 433.44C243.967 435.403 243.796 437.109 243.455 438.56C243.796 439.925 243.967 441.632 243.967 443.68C243.967 445.643 243.796 447.349 243.455 448.8H238.335C238.676 450.165 238.847 451.872 238.847 453.92C238.847 455.883 238.676 457.589 238.335 459.04H233.215C233.556 460.405 233.727 462.112 233.727 464.16C233.727 466.123 233.556 467.829 233.215 469.28H228.095C228.436 470.645 228.607 472.352 228.607 474.4C228.607 476.363 228.436 478.069 228.095 479.52C228.436 480.885 228.607 482.592 228.607 484.64C228.607 486.603 228.436 488.309 228.095 489.76C228.436 491.125 228.607 492.832 228.607 494.88C228.607 496.843 228.436 498.549 228.095 500H217.855C217.514 498.549 217.343 496.843 217.343 494.88C217.343 492.832 217.514 491.125 217.855 489.76C217.514 488.309 217.343 486.603 217.343 484.64C217.343 482.592 217.514 480.885 217.855 479.52C217.514 478.069 217.343 476.363 217.343 474.4C217.343 472.352 217.514 470.645 217.855 469.28H212.735C212.394 467.829 212.223 466.123 212.223 464.16C212.223 462.112 212.394 460.405 212.735 459.04H207.615C207.274 457.589 207.103 455.883 207.103 453.92C207.103 451.872 207.274 450.165 207.615 448.8H202.495C202.154 447.349 201.983 445.643 201.983 443.68C201.983 441.632 202.154 439.925 202.495 438.56C202.154 437.109 201.983 435.403 201.983 433.44C201.983 431.392 202.154 429.685 202.495 428.32H212.735C213.076 429.685 213.247 431.392 213.247 433.44C213.247 435.403 213.076 437.109 212.735 438.56C213.076 439.925 213.247 441.632 213.247 443.68C213.247 445.643 213.076 447.349 212.735 448.8H217.855C218.196 450.165 218.367 451.872 218.367 453.92C218.367 455.883 218.196 457.589 217.855 459.04H228.095C227.754 457.589 227.583 455.883 227.583 453.92C227.583 451.872 227.754 450.165 228.095 448.8H233.215C232.874 447.349 232.703 445.643 232.703 443.68C232.703 441.632 232.874 439.925 233.215 438.56C232.874 437.109 232.703 435.403 232.703 433.44C232.703 431.392 232.874 429.685 233.215 428.32H243.455C243.796 429.685 243.967 431.392 243.967 433.44ZM294.705 479.52C295.046 480.885 295.217 482.592 295.217 484.64C295.217 486.603 295.046 488.309 294.705 489.76H289.585C289.926 491.125 290.097 492.832 290.097 494.88C290.097 496.843 289.926 498.549 289.585 500H263.985C263.644 498.549 263.473 496.843 263.473 494.88C263.473 492.832 263.644 491.125 263.985 489.76H258.865C258.524 488.309 258.353 486.603 258.353 484.64C258.353 482.592 258.524 480.885 258.865 479.52H253.745C253.404 478.069 253.233 476.363 253.233 474.4C253.233 472.352 253.404 470.645 253.745 469.28C253.404 467.829 253.233 466.123 253.233 464.16C253.233 462.112 253.404 460.405 253.745 459.04C253.404 457.589 253.233 455.883 253.233 453.92C253.233 451.872 253.404 450.165 253.745 448.8H258.865C258.524 447.349 258.353 445.643 258.353 443.68C258.353 441.632 258.524 439.925 258.865 438.56H263.985C263.644 437.109 263.473 435.403 263.473 433.44C263.473 431.392 263.644 429.685 263.985 428.32H289.585C289.926 429.685 290.097 431.392 290.097 433.44C290.097 435.403 289.926 437.109 289.585 438.56H294.705C295.046 439.925 295.217 441.632 295.217 443.68C295.217 445.643 295.046 447.349 294.705 448.8H284.465C284.124 447.349 283.953 445.643 283.953 443.68C283.953 441.632 284.124 439.925 284.465 438.56H269.105C269.446 439.925 269.617 441.632 269.617 443.68C269.617 445.643 269.446 447.349 269.105 448.8H263.985C264.326 450.165 264.497 451.872 264.497 453.92C264.497 455.883 264.326 457.589 263.985 459.04C264.326 460.405 264.497 462.112 264.497 464.16C264.497 466.123 264.326 467.829 263.985 469.28C264.326 470.645 264.497 472.352 264.497 474.4C264.497 476.363 264.326 478.069 263.985 479.52H269.105C269.446 480.885 269.617 482.592 269.617 484.64C269.617 486.603 269.446 488.309 269.105 489.76H284.465C284.124 488.309 283.953 486.603 283.953 484.64C283.953 482.592 284.124 480.885 284.465 479.52H294.705ZM345.955 489.76C346.296 491.125 346.467 492.832 346.467 494.88C346.467 496.843 346.296 498.549 345.955 500H310.115C309.774 498.549 309.603 496.843 309.603 494.88C309.603 492.832 309.774 491.125 310.115 489.76C309.774 488.309 309.603 486.603 309.603 484.64C309.603 482.592 309.774 480.885 310.115 479.52C309.774 478.069 309.603 476.363 309.603 474.4C309.603 472.352 309.774 470.645 310.115 469.28C309.774 467.829 309.603 466.123 309.603 464.16C309.603 462.112 309.774 460.405 310.115 459.04C309.774 457.589 309.603 455.883 309.603 453.92C309.603 451.872 309.774 450.165 310.115 448.8C309.774 447.349 309.603 445.643 309.603 443.68C309.603 441.632 309.774 439.925 310.115 438.56C309.774 437.109 309.603 435.403 309.603 433.44C309.603 431.392 309.774 429.685 310.115 428.32H320.355C320.696 429.685 320.867 431.392 320.867 433.44C320.867 435.403 320.696 437.109 320.355 438.56C320.696 439.925 320.867 441.632 320.867 443.68C320.867 445.643 320.696 447.349 320.355 448.8C320.696 450.165 320.867 451.872 320.867 453.92C320.867 455.883 320.696 457.589 320.355 459.04C320.696 460.405 320.867 462.112 320.867 464.16C320.867 466.123 320.696 467.829 320.355 469.28C320.696 470.645 320.867 472.352 320.867 474.4C320.867 476.363 320.696 478.069 320.355 479.52C320.696 480.885 320.867 482.592 320.867 484.64C320.867 486.603 320.696 488.309 320.355 489.76H345.955ZM397.205 459.04C397.546 460.405 397.717 462.112 397.717 464.16C397.717 466.123 397.546 467.829 397.205 469.28C397.546 470.645 397.717 472.352 397.717 474.4C397.717 476.363 397.546 478.069 397.205 479.52H393.365C393.706 480.885 393.877 482.592 393.877 484.64C393.877 486.603 393.706 488.309 393.365 489.76H386.965C387.306 491.125 387.477 492.832 387.477 494.88C387.477 496.843 387.306 498.549 386.965 500H366.485C366.144 498.549 365.973 496.843 365.973 494.88C365.973 492.832 366.144 491.125 366.485 489.76H360.085C359.744 488.309 359.573 486.603 359.573 484.64C359.573 482.592 359.744 480.885 360.085 479.52H356.245C355.904 478.069 355.733 476.363 355.733 474.4C355.733 472.352 355.904 470.645 356.245 469.28C355.904 467.829 355.733 466.123 355.733 464.16C355.733 462.112 355.904 460.405 356.245 459.04C355.904 457.589 355.733 455.883 355.733 453.92C355.733 451.872 355.904 450.165 356.245 448.8H360.085C359.744 447.349 359.573 445.643 359.573 443.68C359.573 441.632 359.744 439.925 360.085 438.56H366.485C366.144 437.109 365.973 435.403 365.973 433.44C365.973 431.392 366.144 429.685 366.485 428.32H386.965C387.306 429.685 387.477 431.392 387.477 433.44C387.477 435.403 387.306 437.109 386.965 438.56H393.365C393.706 439.925 393.877 441.632 393.877 443.68C393.877 445.643 393.706 447.349 393.365 448.8H397.205C397.546 450.165 397.717 451.872 397.717 453.92C397.717 455.883 397.546 457.589 397.205 459.04ZM386.965 479.52C386.624 478.069 386.453 476.363 386.453 474.4C386.453 472.352 386.624 470.645 386.965 469.28C386.624 467.829 386.453 466.123 386.453 464.16C386.453 462.112 386.624 460.405 386.965 459.04C386.624 457.589 386.453 455.883 386.453 453.92C386.453 451.872 386.624 450.165 386.965 448.8H383.125C382.784 447.349 382.613 445.643 382.613 443.68C382.613 441.632 382.784 439.925 383.125 438.56H370.325C370.666 439.925 370.837 441.632 370.837 443.68C370.837 445.643 370.666 447.349 370.325 448.8H366.485C366.826 450.165 366.997 451.872 366.997 453.92C366.997 455.883 366.826 457.589 366.485 459.04C366.826 460.405 366.997 462.112 366.997 464.16C366.997 466.123 366.826 467.829 366.485 469.28C366.826 470.645 366.997 472.352 366.997 474.4C366.997 476.363 366.826 478.069 366.485 479.52H370.325C370.666 480.885 370.837 482.592 370.837 484.64C370.837 486.603 370.666 488.309 370.325 489.76H383.125C382.784 488.309 382.613 486.603 382.613 484.64C382.613 482.592 382.784 480.885 383.125 479.52H386.965ZM448.455 438.56C448.796 439.925 448.967 441.632 448.967 443.68C448.967 445.643 448.796 447.349 448.455 448.8C448.796 450.165 448.967 451.872 448.967 453.92C448.967 455.883 448.796 457.589 448.455 459.04C448.796 460.405 448.967 462.112 448.967 464.16C448.967 466.123 448.796 467.829 448.455 469.28C448.796 470.645 448.967 472.352 448.967 474.4C448.967 476.363 448.796 478.069 448.455 479.52C448.796 480.885 448.967 482.592 448.967 484.64C448.967 486.603 448.796 488.309 448.455 489.76C448.796 491.125 448.967 492.832 448.967 494.88C448.967 496.843 448.796 498.549 448.455 500H438.215C437.874 498.549 437.703 496.843 437.703 494.88C437.703 492.832 437.874 491.125 438.215 489.76H431.815C431.474 488.309 431.303 486.603 431.303 484.64C431.303 482.592 431.474 480.885 431.815 479.52H427.975C427.634 478.069 427.463 476.363 427.463 474.4C427.463 472.352 427.634 470.645 427.975 469.28H422.855C422.514 467.829 422.343 466.123 422.343 464.16C422.343 462.112 422.514 460.405 422.855 459.04H417.735C418.076 460.405 418.247 462.112 418.247 464.16C418.247 466.123 418.076 467.829 417.735 469.28C418.076 470.645 418.247 472.352 418.247 474.4C418.247 476.363 418.076 478.069 417.735 479.52C418.076 480.885 418.247 482.592 418.247 484.64C418.247 486.603 418.076 488.309 417.735 489.76C418.076 491.125 418.247 492.832 418.247 494.88C418.247 496.843 418.076 498.549 417.735 500H407.495C407.154 498.549 406.983 496.843 406.983 494.88C406.983 492.832 407.154 491.125 407.495 489.76C407.154 488.309 406.983 486.603 406.983 484.64C406.983 482.592 407.154 480.885 407.495 479.52C407.154 478.069 406.983 476.363 406.983 474.4C406.983 472.352 407.154 470.645 407.495 469.28C407.154 467.829 406.983 466.123 406.983 464.16C406.983 462.112 407.154 460.405 407.495 459.04C407.154 457.589 406.983 455.883 406.983 453.92C406.983 451.872 407.154 450.165 407.495 448.8C407.154 447.349 406.983 445.643 406.983 443.68C406.983 441.632 407.154 439.925 407.495 438.56C407.154 437.109 406.983 435.403 406.983 433.44C406.983 431.392 407.154 429.685 407.495 428.32H420.295C420.636 429.685 420.807 431.392 420.807 433.44C420.807 435.403 420.636 437.109 420.295 438.56H424.135C424.476 439.925 424.647 441.632 424.647 443.68C424.647 445.643 424.476 447.349 424.135 448.8H427.975C428.316 450.165 428.487 451.872 428.487 453.92C428.487 455.883 428.316 457.589 427.975 459.04H433.095C433.436 460.405 433.607 462.112 433.607 464.16C433.607 466.123 433.436 467.829 433.095 469.28H438.215C437.874 467.829 437.703 466.123 437.703 464.16C437.703 462.112 437.874 460.405 438.215 459.04C437.874 457.589 437.703 455.883 437.703 453.92C437.703 451.872 437.874 450.165 438.215 448.8C437.874 447.349 437.703 445.643 437.703 443.68C437.703 441.632 437.874 439.925 438.215 438.56C437.874 437.109 437.703 435.403 437.703 433.44C437.703 431.392 437.874 429.685 438.215 428.32H448.455C448.796 429.685 448.967 431.392 448.967 433.44C448.967 435.403 448.796 437.109 448.455 438.56ZM474.105 469.28C474.446 470.645 474.617 472.352 474.617 474.4C474.617 476.363 474.446 478.069 474.105 479.52C474.446 480.885 474.617 482.592 474.617 484.64C474.617 486.603 474.446 488.309 474.105 489.76H494.585C494.926 491.125 495.097 492.832 495.097 494.88C495.097 496.843 494.926 498.549 494.585 500H463.865C463.524 498.549 463.353 496.843 463.353 494.88C463.353 492.832 463.524 491.125 463.865 489.76C463.524 488.309 463.353 486.603 463.353 484.64C463.353 482.592 463.524 480.885 463.865 479.52C463.524 478.069 463.353 476.363 463.353 474.4C463.353 472.352 463.524 470.645 463.865 469.28C463.524 467.829 463.353 466.123 463.353 464.16C463.353 462.112 463.524 460.405 463.865 459.04C463.524 457.589 463.353 455.883 463.353 453.92C463.353 451.872 463.524 450.165 463.865 448.8C463.524 447.349 463.353 445.643 463.353 443.68C463.353 441.632 463.524 439.925 463.865 438.56C463.524 437.109 463.353 435.403 463.353 433.44C463.353 431.392 463.524 429.685 463.865 428.32H494.585C494.926 429.685 495.097 431.392 495.097 433.44C495.097 435.403 494.926 437.109 494.585 438.56H474.105C474.446 439.925 474.617 441.632 474.617 443.68C474.617 445.643 474.446 447.349 474.105 448.8C474.446 450.165 474.617 451.872 474.617 453.92C474.617 455.883 474.446 457.589 474.105 459.04H494.585C494.926 460.405 495.097 462.112 495.097 464.16C495.097 466.123 494.926 467.829 494.585 469.28H474.105Z" fill="black"/>
<path d="M832.365 501.25V536H826.665V512.2L816.065 536H812.115L801.465 512.2V536H795.765V501.25H801.915L814.115 528.5L826.265 501.25H832.365ZM855.706 536.35C852.473 536.35 849.49 535.6 846.756 534.1C844.056 532.567 841.906 530.45 840.306 527.75C838.74 525.017 837.956 521.95 837.956 518.55C837.956 515.15 838.74 512.1 840.306 509.4C841.906 506.7 844.056 504.6 846.756 503.1C849.49 501.567 852.473 500.8 855.706 500.8C858.973 500.8 861.956 501.567 864.656 503.1C867.39 504.6 869.54 506.7 871.106 509.4C872.673 512.1 873.456 515.15 873.456 518.55C873.456 521.95 872.673 525.017 871.106 527.75C869.54 530.45 867.39 532.567 864.656 534.1C861.956 535.6 858.973 536.35 855.706 536.35ZM855.706 531.4C858.006 531.4 860.056 530.883 861.856 529.85C863.656 528.783 865.056 527.283 866.056 525.35C867.09 523.383 867.606 521.117 867.606 518.55C867.606 515.983 867.09 513.733 866.056 511.8C865.056 509.867 863.656 508.383 861.856 507.35C860.056 506.317 858.006 505.8 855.706 505.8C853.406 505.8 851.356 506.317 849.556 507.35C847.756 508.383 846.34 509.867 845.306 511.8C844.306 513.733 843.806 515.983 843.806 518.55C843.806 521.117 844.306 523.383 845.306 525.35C846.34 527.283 847.756 528.783 849.556 529.85C851.356 530.883 853.406 531.4 855.706 531.4ZM890.415 501.25C894.115 501.25 897.349 501.967 900.115 503.4C902.915 504.8 905.065 506.833 906.565 509.5C908.099 512.133 908.865 515.217 908.865 518.75C908.865 522.283 908.099 525.35 906.565 527.95C905.065 530.55 902.915 532.55 900.115 533.95C897.349 535.317 894.115 536 890.415 536H879.065V501.25H890.415ZM890.415 531.35C894.482 531.35 897.599 530.25 899.765 528.05C901.932 525.85 903.015 522.75 903.015 518.75C903.015 514.717 901.932 511.567 899.765 509.3C897.599 507.033 894.482 505.9 890.415 505.9H884.765V531.35H890.415ZM920.215 505.85V516.05H932.215V520.7H920.215V531.35H933.715V536H914.515V501.2H933.715V505.85H920.215Z" fill="black"/>
<g filter="url(#filter4_d_25_29)">
<circle cx="95" cy="194" r="20" fill="url(#paint1_radial_25_29)"/>
</g>
<g filter="url(#filter5_d_25_29)">
<circle cx="695" cy="194" r="20" fill="url(#paint2_radial_25_29)"/>
</g>
<g filter="url(#filter6_d_25_29)">
<circle cx="295" cy="194" r="20" fill="url(#paint3_radial_25_29)"/>
</g>
<g filter="url(#filter7_d_25_29)">
<circle cx="895" cy="194" r="20" fill="url(#paint4_radial_25_29)"/>
</g>
<g filter="url(#filter8_d_25_29)">
<circle cx="495" cy="194" r="20" fill="url(#paint5_radial_25_29)"/>
</g>
<defs>
<filter id="filter0_d_25_29" x="71" y="375" width="508" height="183" filterUnits="userSpaceOnUse" color-interpolation-filters="sRGB">
<feFlood flood-opacity="0" result="BackgroundImageFix"/>
<feColorMatrix in="SourceAlpha" type="matrix" values="0 0 0 0 0 0 0 0 0 0 0 0 0 0 0 0 0 0 127 0" result="hardAlpha"/>
<feOffset dy="4"/>
<feGaussianBlur stdDeviation="2"/>
<feComposite in2="hardAlpha" operator="out"/>
<feColorMatrix type="matrix" values="0 0 0 0 0 0 0 0 0 0 0 0 0 0 0 0 0 0 0.25 0"/>
<feBlend mode="normal" in2="BackgroundImageFix" result="effect1_dropShadow_25_29"/>
<feBlend mode="normal" in="SourceGraphic" in2="effect1_dropShadow_25_29" result="shape"/>
</filter>
<filter id="filter1_i_25_29" x="95" y="400" width="460" height="129" filterUnits="userSpaceOnUse" color-interpolation-filters="sRGB">
<feFlood flood-opacity="0" result="BackgroundImageFix"/>
<feBlend mode="normal" in="SourceGraphic" in2="BackgroundImageFix" result="shape"/>
<feColorMatrix in="SourceAlpha" type="matrix" values="0 0 0 0 0 0 0 0 0 0 0 0 0 0 0 0 0 0 127 0" result="hardAlpha"/>
<feOffset dy="4"/>
<feGaussianBlur stdDeviation="2"/>
<feComposite in2="hardAlpha" operator="arithmetic" k2="-1" k3="1"/>
<feColorMatrix type="matrix" values="0 0 0 0 0 0 0 0 0 0 0 0 0 0 0 0 0 0 0.25 0"/>
<feBlend mode="normal" in2="shape" result="effect1_innerShadow_25_29"/>
</filter>
<filter id="filter2_d_25_29" x="648" y="375" width="98" height="98" filterUnits="userSpaceOnUse" color-interpolation-filters="sRGB">
<feFlood flood-opacity="0" result="BackgroundImageFix"/>
<feColorMatrix in="SourceAlpha" type="matrix" values="0 0 0 0 0 0 0 0 0 0 0 0 0 0 0 0 0 0 127 0" result="hardAlpha"/>
<feOffset dy="4"/>
<feGaussianBlur stdDeviation="2"/>
<feComposite in2="hardAlpha" operator="out"/>
<feColorMatrix type="matrix" values="0 0 0 0 0 0 0 0 0 0 0 0 0 0 0 0 0 0 0.25 0"/>
<feBlend mode="normal" in2="BackgroundImageFix" result="effect1_dropShadow_25_29"/>
<feBlend mode="normal" in="SourceGraphic" in2="effect1_dropShadow_25_29" result="shape"/>
</filter>
<filter id="filter3_d_25_29" x="815" y="375" width="98" height="98" filterUnits="userSpaceOnUse" color-interpolation-filters="sRGB">
<feFlood flood-opacity="0" result="BackgroundImageFix"/>
<feColorMatrix in="SourceAlpha" type="matrix" values="0 0 0 0 0 0 0 0 0 0 0 0 0 0 0 0 0 0 127 0" result="hardAlpha"/>
<feOffset dy="4"/>
<feGaussianBlur stdDeviation="2"/>
<feComposite in2="hardAlpha" operator="out"/>
<feColorMatrix type="matrix" values="0 0 0 0 0 0 0 0 0 0 0 0 0 0 0 0 0 0 0.25 0"/>
<feBlend mode="normal" in2="BackgroundImageFix" result="effect1_dropShadow_25_29"/>
<feBlend mode="normal" in="SourceGraphic" in2="effect1_dropShadow_25_29" result="shape"/>
</filter>
<filter id="filter4_d_25_29" x="71" y="174" width="48" height="48" filterUnits="userSpaceOnUse" color-interpolation-filters="sRGB">
<feFlood flood-opacity="0" result="BackgroundImageFix"/>
<feColorMatrix in="SourceAlpha" type="matrix" values="0 0 0 0 0 0 0 0 0 0 0 0 0 0 0 0 0 0 127 0" result="hardAlpha"/>
<feOffset dy="4"/>
<feGaussianBlur stdDeviation="2"/>
<feComposite in2="hardAlpha" operator="out"/>
<feColorMatrix type="matrix" values="0 0 0 0 0 0 0 0 0 0 0 0 0 0 0 0 0 0 0.25 0"/>
<feBlend mode="normal" in2="BackgroundImageFix" result="effect1_dropShadow_25_29"/>
<feBlend mode="normal" in="SourceGraphic" in2="effect1_dropShadow_25_29" result="shape"/>
</filter>
<filter id="filter5_d_25_29" x="671" y="174" width="48" height="48" filterUnits="userSpaceOnUse" color-interpolation-filters="sRGB">
<feFlood flood-opacity="0" result="BackgroundImageFix"/>
<feColorMatrix in="SourceAlpha" type="matrix" values="0 0 0 0 0 0 0 0 0 0 0 0 0 0 0 0 0 0 127 0" result="hardAlpha"/>
<feOffset dy="4"/>
<feGaussianBlur stdDeviation="2"/>
<feComposite in2="hardAlpha" operator="out"/>
<feColorMatrix type="matrix" values="0 0 0 0 0 0 0 0 0 0 0 0 0 0 0 0 0 0 0.25 0"/>
<feBlend mode="normal" in2="BackgroundImageFix" result="effect1_dropShadow_25_29"/>
<feBlend mode="normal" in="SourceGraphic" in2="effect1_dropShadow_25_29" result="shape"/>
</filter>
<filter id="filter6_d_25_29" x="213" y="112" width="164" height="164" filterUnits="userSpaceOnUse" color-interpolation-filters="sRGB">
<feFlood flood-opacity="0" result="BackgroundImageFix"/>
<feColorMatrix in="SourceAlpha" type="matrix" values="0 0 0 0 0 0 0 0 0 0 0 0 0 0 0 0 0 0 127 0" result="hardAlpha"/>
<feMorphology radius="22" operator="dilate" in="SourceAlpha" result="effect1_dropShadow_25_29"/>
<feOffset/>
<feGaussianBlur stdDeviation="20"/>
<feComposite in2="hardAlpha" operator="out"/>
<feColorMatrix type="matrix" values="0 0 0 0 1 0 0 0 0 1 0 0 0 0 0 0 0 0 0.25 0"/>
<feBlend mode="normal" in2="BackgroundImageFix" result="effect1_dropShadow_25_29"/>
<feBlend mode="normal" in="SourceGraphic" in2="effect1_dropShadow_25_29" result="shape"/>
</filter>
<filter id="filter7_d_25_29" x="871" y="174" width="48" height="48" filterUnits="userSpaceOnUse" color-interpolation-filters="sRGB">
<feFlood flood-opacity="0" result="BackgroundImageFix"/>
<feColorMatrix in="SourceAlpha" type="matrix" values="0 0 0 0 0 0 0 0 0 0 0 0 0 0 0 0 0 0 127 0" result="hardAlpha"/>
<feOffset dy="4"/>
<feGaussianBlur stdDeviation="2"/>
<feComposite in2="hardAlpha" operator="out"/>
<feColorMatrix type="matrix" values="0 0 0 0 0 0 0 0 0 0 0 0 0 0 0 0 0 0 0.25 0"/>
<feBlend mode="normal" in2="BackgroundImageFix" result="effect1_dropShadow_25_29"/>
<feBlend mode="normal" in="SourceGraphic" in2="effect1_dropShadow_25_29" result="shape"/>
</filter>
<filter id="filter8_d_25_29" x="471" y="174" width="48" height="48" filterUnits="userSpaceOnUse" color-interpolation-filters="sRGB">
<feFlood flood-opacity="0" result="BackgroundImageFix"/>
<feColorMatrix in="SourceAlpha" type="matrix" values="0 0 0 0 0 0 0 0 0 0 0 0 0 0 0 0 0 0 127 0" result="hardAlpha"/>
<feOffset dy="4"/>
<feGaussianBlur stdDeviation="2"/>
<feComposite in2="hardAlpha" operator="out"/>
<feColorMatrix type="matrix" values="0 0 0 0 0 0 0 0 0 0 0 0 0 0 0 0 0 0 0.25 0"/>
<feBlend mode="normal" in2="BackgroundImageFix" result="effect1_dropShadow_25_29"/>
<feBlend mode="normal" in="SourceGraphic" in2="effect1_dropShadow_25_29" result="shape"/>
</filter>
<radialGradient id="paint0_radial_25_29" cx="0" cy="0" r="1" gradientUnits="userSpaceOnUse" gradientTransform="translate(325 462) scale(230 810)">
<stop stop-color="#79B72B"/>
<stop offset="1" stop-color="#80EA0F"/>
</radialGradient>
<radialGradient id="paint1_radial_25_29" cx="0" cy="0" r="1" gradientUnits="userSpaceOnUse" gradientTransform="translate(95 194) rotate(90) scale(20)">
<stop stop-color="#CC0000"/>
<stop offset="1" stop-color="#AD0000"/>
</radialGradient>
<radialGradient id="paint2_radial_25_29" cx="0" cy="0" r="1" gradientUnits="userSpaceOnUse" gradientTransform="translate(695 194) rotate(90) scale(20)">
<stop stop-color="#CCCC00"/>
<stop offset="1" stop-color="#ADAD00"/>
</radialGradient>
<radialGradient id="paint3_radial_25_29" cx="0" cy="0" r="1" gradientUnits="userSpaceOnUse" gradientTransform="translate(295 194) rotate(90) scale(20)">
<stop stop-color="#F5F500"/>
<stop offset="1" stop-color="#EEEE00"/>
</radialGradient>
<radialGradient id="paint4_radial_25_29" cx="0" cy="0" r="1" gradientUnits="userSpaceOnUse" gradientTransform="translate(895 194) rotate(90) scale(20)">
<stop stop-color="#CC0000"/>
<stop offset="1" stop-color="#AD0000"/>
</radialGradient>
<radialGradient id="paint5_radial_25_29" cx="0" cy="0" r="1" gradientUnits="userSpaceOnUse" gradientTransform="translate(495 194) rotate(90) scale(20)">
<stop stop-color="#00CC00"/>
<stop offset="1" stop-color="#00AD00"/>
</radialGradient>
</defs>
</svg>
