<svg width="990" height="600" viewBox="0 0 990 600" fill="none" xmlns="http://www.w3.org/2000/svg">
<rect width="990" height="600" fill="url(#paint0_linear_8_14)"/>
<path d="M52.5352 256.097V227.545H175.476V256.097H131.37V373H96.7113V256.097H52.5352ZM323.292 300.273C323.292 316.277 320.214 329.842 314.059 340.969C307.903 352.096 299.57 360.547 289.059 366.324C278.595 372.1 266.852 374.989 253.831 374.989C240.763 374.989 228.997 372.077 218.533 366.253C208.069 360.429 199.759 351.977 193.604 340.898C187.496 329.771 184.442 316.229 184.442 300.273C184.442 284.269 187.496 270.704 193.604 259.577C199.759 248.45 208.069 239.998 218.533 234.222C228.997 228.445 240.763 225.557 253.831 225.557C266.852 225.557 278.595 228.445 289.059 234.222C299.57 239.998 307.903 248.45 314.059 259.577C320.214 270.704 323.292 284.269 323.292 300.273ZM287.354 300.273C287.354 290.803 286.005 282.801 283.306 276.267C280.654 269.733 276.819 264.785 271.8 261.423C266.828 258.062 260.839 256.381 253.831 256.381C246.871 256.381 240.882 258.062 235.863 261.423C230.844 264.785 226.985 269.733 224.286 276.267C221.634 282.801 220.309 290.803 220.309 300.273C220.309 309.742 221.634 317.744 224.286 324.278C226.985 330.812 230.844 335.76 235.863 339.122C240.882 342.484 246.871 344.165 253.831 344.165C260.839 344.165 266.828 342.484 271.8 339.122C276.819 335.76 280.654 330.812 283.306 324.278C286.005 317.744 287.354 309.742 287.354 300.273ZM397.581 373H343.817V227.545H397.51C412.33 227.545 425.091 230.457 435.792 236.281C446.54 242.058 454.826 250.391 460.65 261.281C466.473 272.124 469.385 285.098 469.385 300.202C469.385 315.353 466.473 328.374 460.65 339.264C454.873 350.154 446.611 358.511 435.863 364.335C425.114 370.112 412.354 373 397.581 373ZM378.973 343.028H396.232C404.376 343.028 411.265 341.655 416.9 338.909C422.581 336.116 426.866 331.594 429.755 325.344C432.69 319.046 434.158 310.666 434.158 300.202C434.158 289.738 432.69 281.404 429.755 275.202C426.819 268.952 422.487 264.454 416.757 261.707C411.076 258.914 404.068 257.517 395.735 257.517H378.973V343.028ZM627.198 300.273C627.198 316.277 624.12 329.842 617.965 340.969C611.81 352.096 603.476 360.547 592.965 366.324C582.501 372.1 570.758 374.989 557.738 374.989C544.669 374.989 532.903 372.077 522.439 366.253C511.975 360.429 503.666 351.977 497.51 340.898C491.402 329.771 488.348 316.229 488.348 300.273C488.348 284.269 491.402 270.704 497.51 259.577C503.666 248.45 511.975 239.998 522.439 234.222C532.903 228.445 544.669 225.557 557.738 225.557C570.758 225.557 582.501 228.445 592.965 234.222C603.476 239.998 611.81 248.45 617.965 259.577C624.12 270.704 627.198 284.269 627.198 300.273ZM591.26 300.273C591.26 290.803 589.911 282.801 587.212 276.267C584.56 269.733 580.725 264.785 575.706 261.423C570.735 258.062 564.745 256.381 557.738 256.381C550.777 256.381 544.788 258.062 539.769 261.423C534.75 264.785 530.891 269.733 528.192 276.267C525.541 282.801 524.215 290.803 524.215 300.273C524.215 309.742 525.541 317.744 528.192 324.278C530.891 330.812 534.75 335.76 539.769 339.122C544.788 342.484 550.777 344.165 557.738 344.165C564.745 344.165 570.735 342.484 575.706 339.122C580.725 335.76 584.56 330.812 587.212 324.278C589.911 317.744 591.26 309.742 591.26 300.273Z" fill="black"/>
<rect x="721.612" y="355.777" width="250" height="40" transform="rotate(-45 721.612 355.777)" fill="black"/>
<rect x="742.388" y="376.99" width="125" height="40" transform="rotate(-135 742.388 376.99)" fill="black"/>
<defs>
<linearGradient id="paint0_linear_8_14" x1="990" y1="22.5" x2="8.00253e-05" y2="600" gradientUnits="userSpaceOnUse">
<stop stop-color="#FFB800"/>
<stop offset="0.512866" stop-color="#FC8801"/>
<stop offset="1" stop-color="#F97802"/>
</linearGradient>
</defs>
</svg>
