<svg width="330" height="200" viewBox="0 0 330 200" fill="none" xmlns="http://www.w3.org/2000/svg">
<rect width="330" height="200" fill="url(#paint0_diamond_603_19)"/>
<path d="M108.559 87V60.84H117.159C119.079 60.84 120.786 61.0933 122.279 61.6C123.772 62.1067 124.946 62.9467 125.799 64.12C126.679 65.2933 127.119 66.8933 127.119 68.92C127.119 70.84 126.679 72.4267 125.799 73.68C124.946 74.9333 123.759 75.8667 122.239 76.48C120.746 77.0933 119.052 77.4 117.159 77.4H113.199V87H108.559ZM113.199 73.68H116.799C118.746 73.68 120.186 73.28 121.119 72.48C122.079 71.68 122.559 70.4933 122.559 68.92C122.559 67.2667 122.066 66.1333 121.079 65.52C120.119 64.88 118.692 64.56 116.799 64.56H113.199V73.68ZM145.023 87.48C142.757 87.48 141.023 86.8133 139.823 85.48C138.65 84.12 138.063 82.24 138.063 79.84V62.4H131.663V58.76H142.663V80.08C142.663 81.4133 142.997 82.36 143.663 82.92C144.357 83.4533 145.197 83.72 146.183 83.72C146.69 83.72 147.21 83.6667 147.743 83.56C148.277 83.4267 148.877 83.2267 149.543 82.96L150.623 86.36C149.69 86.68 148.81 86.9467 147.983 87.16C147.183 87.3733 146.197 87.48 145.023 87.48ZM162.408 87.48C161.128 87.48 159.994 87.24 159.008 86.76C158.021 86.2533 157.248 85.5733 156.688 84.72C156.128 83.8667 155.848 82.8667 155.848 81.72C155.848 79.5333 156.888 77.8667 158.968 76.72C161.074 75.5467 164.554 74.7867 169.408 74.44C169.354 73.72 169.154 73.0667 168.808 72.48C168.488 71.8933 167.994 71.44 167.328 71.12C166.661 70.7733 165.794 70.6 164.728 70.6C163.981 70.6 163.248 70.6933 162.528 70.88C161.808 71.0667 161.088 71.32 160.368 71.64C159.674 71.96 158.981 72.3067 158.288 72.68L156.608 69.6C157.408 69.12 158.288 68.68 159.248 68.28C160.208 67.8533 161.221 67.52 162.288 67.28C163.354 67.0133 164.448 66.88 165.568 66.88C167.408 66.88 168.941 67.2133 170.168 67.88C171.421 68.52 172.368 69.48 173.008 70.76C173.674 72.0133 174.008 73.5467 174.008 75.36V87H170.248L169.888 84.56H169.768C168.728 85.36 167.568 86.0533 166.288 86.64C165.034 87.2 163.741 87.48 162.408 87.48ZM163.808 83.88C164.794 83.88 165.741 83.6667 166.648 83.24C167.581 82.7867 168.501 82.2 169.408 81.48V77.32C167.061 77.48 165.221 77.7467 163.888 78.12C162.554 78.4667 161.621 78.92 161.088 79.48C160.554 80.04 160.288 80.6667 160.288 81.36C160.288 81.9467 160.448 82.4267 160.768 82.8C161.088 83.1733 161.501 83.4533 162.008 83.64C162.541 83.8 163.141 83.88 163.808 83.88ZM190.752 87.48C188.699 87.48 186.846 87.08 185.192 86.28C183.566 85.4533 182.272 84.28 181.312 82.76C180.379 81.2133 179.912 79.36 179.912 77.2C179.912 75.0133 180.419 73.16 181.432 71.64C182.472 70.0933 183.846 68.92 185.552 68.12C187.259 67.2933 189.099 66.88 191.072 66.88C192.672 66.88 194.086 67.1467 195.312 67.68C196.539 68.1867 197.552 68.84 198.352 69.64L196.152 72.52C195.379 71.9067 194.592 71.44 193.792 71.12C193.019 70.8 192.192 70.64 191.312 70.64C190.006 70.64 188.846 70.92 187.832 71.48C186.846 72.0133 186.072 72.7733 185.512 73.76C184.952 74.7467 184.672 75.8933 184.672 77.2C184.672 78.5067 184.939 79.6533 185.472 80.64C186.032 81.6267 186.792 82.3867 187.752 82.92C188.739 83.4533 189.886 83.72 191.192 83.72C192.312 83.72 193.339 83.5067 194.272 83.08C195.206 82.6533 196.046 82.1467 196.792 81.56L198.712 84.52C197.592 85.48 196.339 86.2133 194.952 86.72C193.566 87.2267 192.166 87.48 190.752 87.48ZM214.177 87.48C212.177 87.48 210.363 87.08 208.737 86.28C207.11 85.4533 205.817 84.28 204.857 82.76C203.897 81.2133 203.417 79.3467 203.417 77.16C203.417 75.0267 203.897 73.2 204.857 71.68C205.817 70.1333 207.07 68.9467 208.617 68.12C210.163 67.2933 211.817 66.88 213.577 66.88C215.523 66.88 217.163 67.28 218.497 68.08C219.857 68.88 220.883 69.9867 221.577 71.4C222.297 72.7867 222.657 74.3867 222.657 76.2C222.657 76.6533 222.63 77.0933 222.577 77.52C222.55 77.92 222.51 78.2533 222.457 78.52H206.737V75.24H219.497L218.617 76.28C218.617 74.3333 218.177 72.88 217.297 71.92C216.443 70.9333 215.243 70.44 213.697 70.44C212.603 70.44 211.617 70.6933 210.737 71.2C209.883 71.7067 209.203 72.4667 208.697 73.48C208.19 74.4667 207.937 75.6933 207.937 77.16C207.937 78.68 208.217 79.9333 208.777 80.92C209.363 81.9067 210.163 82.6533 211.177 83.16C212.217 83.6667 213.417 83.92 214.777 83.92C215.817 83.92 216.777 83.7733 217.657 83.48C218.537 83.1867 219.417 82.7867 220.297 82.28L221.857 85.16C220.817 85.8267 219.643 86.3867 218.337 86.84C217.03 87.2667 215.643 87.48 214.177 87.48ZM95.8869 137V110.84H100.567V121.36H109.527V110.84H114.207V137H109.527V125.4H100.567V137H95.8869ZM129.031 137.48C127.298 137.48 125.685 137.08 124.191 136.28C122.698 135.453 121.485 134.28 120.551 132.76C119.618 131.213 119.151 129.36 119.151 127.2C119.151 125.013 119.618 123.16 120.551 121.64C121.485 120.093 122.698 118.92 124.191 118.12C125.685 117.293 127.298 116.88 129.031 116.88C130.765 116.88 132.378 117.293 133.871 118.12C135.365 118.92 136.578 120.093 137.511 121.64C138.445 123.16 138.911 125.013 138.911 127.2C138.911 129.36 138.445 131.213 137.511 132.76C136.578 134.28 135.365 135.453 133.871 136.28C132.378 137.08 130.765 137.48 129.031 137.48ZM129.031 133.72C130.098 133.72 131.018 133.453 131.791 132.92C132.565 132.387 133.151 131.627 133.551 130.64C133.951 129.653 134.151 128.507 134.151 127.2C134.151 125.893 133.951 124.747 133.551 123.76C133.151 122.773 132.565 122.013 131.791 121.48C131.018 120.92 130.098 120.64 129.031 120.64C127.965 120.64 127.045 120.92 126.271 121.48C125.525 122.013 124.938 122.773 124.511 123.76C124.111 124.747 123.911 125.893 123.911 127.2C123.911 128.507 124.111 129.653 124.511 130.64C124.938 131.627 125.525 132.387 126.271 132.92C127.045 133.453 127.965 133.72 129.031 133.72ZM157.016 137.48C154.749 137.48 153.016 136.813 151.816 135.48C150.642 134.12 150.056 132.24 150.056 129.84V112.4H143.656V108.76H154.656V130.08C154.656 131.413 154.989 132.36 155.656 132.92C156.349 133.453 157.189 133.72 158.176 133.72C158.682 133.72 159.202 133.667 159.736 133.56C160.269 133.427 160.869 133.227 161.536 132.96L162.616 136.36C161.682 136.68 160.802 136.947 159.976 137.16C159.176 137.373 158.189 137.48 157.016 137.48ZM175.52 137.48C173.013 137.48 170.987 136.573 169.44 134.76C167.893 132.947 167.12 130.427 167.12 127.2C167.12 125.067 167.533 123.227 168.36 121.68C169.187 120.133 170.267 118.947 171.6 118.12C172.933 117.293 174.333 116.88 175.8 116.88C176.92 116.88 177.907 117.08 178.76 117.48C179.64 117.88 180.453 118.453 181.2 119.2H181.32L181.08 115.88V108.76H185.72V137H181.92L181.56 134.72H181.44C180.693 135.467 179.8 136.12 178.76 136.68C177.72 137.213 176.64 137.48 175.52 137.48ZM176.64 133.68C177.44 133.68 178.213 133.493 178.96 133.12C179.707 132.72 180.413 132.12 181.08 131.32V122.48C180.387 121.813 179.693 121.347 179 121.08C178.307 120.813 177.6 120.68 176.88 120.68C175.973 120.68 175.133 120.933 174.36 121.44C173.613 121.947 173.013 122.68 172.56 123.64C172.107 124.6 171.88 125.773 171.88 127.16C171.88 129.267 172.293 130.88 173.12 132C173.973 133.12 175.147 133.68 176.64 133.68ZM202.184 137.48C200.184 137.48 198.371 137.08 196.744 136.28C195.118 135.453 193.824 134.28 192.864 132.76C191.904 131.213 191.424 129.347 191.424 127.16C191.424 125.027 191.904 123.2 192.864 121.68C193.824 120.133 195.078 118.947 196.624 118.12C198.171 117.293 199.824 116.88 201.584 116.88C203.531 116.88 205.171 117.28 206.504 118.08C207.864 118.88 208.891 119.987 209.584 121.4C210.304 122.787 210.664 124.387 210.664 126.2C210.664 126.653 210.638 127.093 210.584 127.52C210.558 127.92 210.518 128.253 210.464 128.52H194.744V125.24H207.504L206.624 126.28C206.624 124.333 206.184 122.88 205.304 121.92C204.451 120.933 203.251 120.44 201.704 120.44C200.611 120.44 199.624 120.693 198.744 121.2C197.891 121.707 197.211 122.467 196.704 123.48C196.198 124.467 195.944 125.693 195.944 127.16C195.944 128.68 196.224 129.933 196.784 130.92C197.371 131.907 198.171 132.653 199.184 133.16C200.224 133.667 201.424 133.92 202.784 133.92C203.824 133.92 204.784 133.773 205.664 133.48C206.544 133.187 207.424 132.787 208.304 132.28L209.864 135.16C208.824 135.827 207.651 136.387 206.344 136.84C205.038 137.267 203.651 137.48 202.184 137.48ZM218.169 137V117.36H221.969L222.369 121.8H222.489C223.475 120.2 224.689 118.987 226.129 118.16C227.595 117.307 229.169 116.88 230.849 116.88C231.649 116.88 232.342 116.947 232.929 117.08C233.515 117.213 234.089 117.413 234.649 117.68L233.689 121.56C233.049 121.347 232.475 121.2 231.969 121.12C231.489 121.013 230.875 120.96 230.129 120.96C228.795 120.96 227.489 121.347 226.209 122.12C224.955 122.893 223.822 124.24 222.809 126.16V137H218.169Z" fill="#8F6297"/>
<defs>
<radialGradient id="paint0_diamond_603_19" cx="0" cy="0" r="1" gradientUnits="userSpaceOnUse" gradientTransform="translate(330 18) rotate(151.123) scale(376.861 621.82)">
<stop stop-color="#42FF00"/>
<stop offset="0.493424" stop-color="#43F38A"/>
<stop offset="1" stop-color="#00FFF0"/>
</radialGradient>
</defs>
</svg>
