<svg width="990" height="600" viewBox="0 0 990 600" fill="none" xmlns="http://www.w3.org/2000/svg">
<rect width="990" height="600" fill="url(#paint0_linear_24_16)"/>
<g filter="url(#filter0_d_24_16)">
<path d="M450.912 282.84C450.912 289.8 448.512 295.6 443.712 300.24C438.992 304.8 431.752 307.08 421.992 307.08H405.912V342H394.992V258.36H421.992C431.432 258.36 438.592 260.64 443.472 265.2C448.432 269.76 450.912 275.64 450.912 282.84ZM421.992 298.08C428.072 298.08 432.552 296.76 435.432 294.12C438.312 291.48 439.752 287.72 439.752 282.84C439.752 272.52 433.832 267.36 421.992 267.36H405.912V298.08H421.992ZM493.164 343.08C487.004 343.08 481.404 341.68 476.364 338.88C471.404 336.08 467.484 332.12 464.604 327C461.804 321.8 460.404 315.8 460.404 309C460.404 302.28 461.844 296.36 464.724 291.24C467.684 286.04 471.684 282.08 476.724 279.36C481.764 276.56 487.404 275.16 493.644 275.16C499.884 275.16 505.524 276.56 510.564 279.36C515.604 282.08 519.564 286 522.444 291.12C525.404 296.24 526.884 302.2 526.884 309C526.884 315.8 525.364 321.8 522.324 327C519.364 332.12 515.324 336.08 510.204 338.88C505.084 341.68 499.404 343.08 493.164 343.08ZM493.164 333.48C497.084 333.48 500.764 332.56 504.204 330.72C507.644 328.88 510.404 326.12 512.484 322.44C514.644 318.76 515.724 314.28 515.724 309C515.724 303.72 514.684 299.24 512.604 295.56C510.524 291.88 507.804 289.16 504.444 287.4C501.084 285.56 497.444 284.64 493.524 284.64C489.524 284.64 485.844 285.56 482.484 287.4C479.204 289.16 476.564 291.88 474.564 295.56C472.564 299.24 471.564 303.72 471.564 309C471.564 314.36 472.524 318.88 474.444 322.56C476.444 326.24 479.084 329 482.364 330.84C485.644 332.6 489.244 333.48 493.164 333.48ZM552.162 286.92C554.082 283.16 556.802 280.24 560.322 278.16C563.922 276.08 568.282 275.04 573.402 275.04V286.32H570.522C558.282 286.32 552.162 292.96 552.162 306.24V342H541.242V276.24H552.162V286.92ZM599.328 285.24V324C599.328 327.2 600.008 329.48 601.368 330.84C602.728 332.12 605.088 332.76 608.448 332.76H616.488V342H606.648C600.568 342 596.008 340.6 592.968 337.8C589.928 335 588.408 330.4 588.408 324V285.24H579.888V276.24H588.408V259.68H599.328V276.24H616.488V285.24H599.328ZM656.479 285.24H642.679V342H631.759V285.24H623.239V276.24H631.759V271.56C631.759 264.2 633.639 258.84 637.399 255.48C641.239 252.04 647.359 250.32 655.759 250.32V259.44C650.959 259.44 647.559 260.4 645.559 262.32C643.639 264.16 642.679 267.24 642.679 271.56V276.24H656.479V285.24ZM697.891 343.08C691.731 343.08 686.131 341.68 681.091 338.88C676.131 336.08 672.211 332.12 669.331 327C666.531 321.8 665.131 315.8 665.131 309C665.131 302.28 666.571 296.36 669.451 291.24C672.411 286.04 676.411 282.08 681.451 279.36C686.491 276.56 692.131 275.16 698.371 275.16C704.611 275.16 710.251 276.56 715.291 279.36C720.331 282.08 724.291 286 727.171 291.12C730.131 296.24 731.611 302.2 731.611 309C731.611 315.8 730.091 321.8 727.051 327C724.091 332.12 720.051 336.08 714.931 338.88C709.811 341.68 704.131 343.08 697.891 343.08ZM697.891 333.48C701.811 333.48 705.491 332.56 708.931 330.72C712.371 328.88 715.131 326.12 717.211 322.44C719.371 318.76 720.451 314.28 720.451 309C720.451 303.72 719.411 299.24 717.331 295.56C715.251 291.88 712.531 289.16 709.171 287.4C705.811 285.56 702.171 284.64 698.251 284.64C694.251 284.64 690.571 285.56 687.211 287.4C683.931 289.16 681.291 291.88 679.291 295.56C677.291 299.24 676.291 303.72 676.291 309C676.291 314.36 677.251 318.88 679.171 322.56C681.171 326.24 683.811 329 687.091 330.84C690.371 332.6 693.971 333.48 697.891 333.48ZM756.889 253.2V342H745.969V253.2H756.889ZM781.14 265.56C779.06 265.56 777.3 264.84 775.86 263.4C774.42 261.96 773.7 260.2 773.7 258.12C773.7 256.04 774.42 254.28 775.86 252.84C777.3 251.4 779.06 250.68 781.14 250.68C783.14 250.68 784.82 251.4 786.18 252.84C787.62 254.28 788.34 256.04 788.34 258.12C788.34 260.2 787.62 261.96 786.18 263.4C784.82 264.84 783.14 265.56 781.14 265.56ZM786.42 276.24V342H775.5V276.24H786.42ZM833.711 343.08C827.551 343.08 821.951 341.68 816.911 338.88C811.951 336.08 808.031 332.12 805.151 327C802.351 321.8 800.951 315.8 800.951 309C800.951 302.28 802.391 296.36 805.271 291.24C808.231 286.04 812.231 282.08 817.271 279.36C822.311 276.56 827.951 275.16 834.191 275.16C840.431 275.16 846.071 276.56 851.111 279.36C856.151 282.08 860.111 286 862.991 291.12C865.951 296.24 867.431 302.2 867.431 309C867.431 315.8 865.911 321.8 862.871 327C859.911 332.12 855.871 336.08 850.751 338.88C845.631 341.68 839.951 343.08 833.711 343.08ZM833.711 333.48C837.631 333.48 841.311 332.56 844.751 330.72C848.191 328.88 850.951 326.12 853.031 322.44C855.191 318.76 856.271 314.28 856.271 309C856.271 303.72 855.231 299.24 853.151 295.56C851.071 291.88 848.351 289.16 844.991 287.4C841.631 285.56 837.991 284.64 834.071 284.64C830.071 284.64 826.391 285.56 823.031 287.4C819.751 289.16 817.111 291.88 815.111 295.56C813.111 299.24 812.111 303.72 812.111 309C812.111 314.36 813.071 318.88 814.991 322.56C816.991 326.24 819.631 329 822.911 330.84C826.191 332.6 829.791 333.48 833.711 333.48Z" fill="white"/>
</g>
<path d="M143.179 246C143.179 229.431 156.611 216 173.179 216H321.82C338.389 216 351.82 229.431 351.82 246V345C351.82 361.569 338.389 375 321.82 375H173.179C156.611 375 143.179 361.569 143.179 345V246Z" fill="white"/>
<path d="M190.75 288.8C186.484 288.8 183.23 287.6 180.99 285.2C178.75 282.747 177.63 279.253 177.63 274.72V245.28C177.63 240.747 178.75 237.28 180.99 234.88C183.23 232.427 186.484 231.2 190.75 231.2C195.017 231.2 198.27 232.427 200.51 234.88C202.75 237.28 203.87 240.747 203.87 245.28V250.08H195.55V244.72C195.55 241.04 194.03 239.2 190.99 239.2C187.95 239.2 186.43 241.04 186.43 244.72V275.36C186.43 278.987 187.95 280.8 190.99 280.8C194.03 280.8 195.55 278.987 195.55 275.36V264.4H191.15V256.4H203.87V274.72C203.87 279.253 202.75 282.747 200.51 285.2C198.27 287.6 195.017 288.8 190.75 288.8ZM231.8 288.8C227.587 288.8 224.36 287.6 222.12 285.2C219.934 282.8 218.84 279.413 218.84 275.04V244.96C218.84 240.587 219.934 237.2 222.12 234.8C224.36 232.4 227.587 231.2 231.8 231.2C236.014 231.2 239.214 232.4 241.4 234.8C243.64 237.2 244.76 240.587 244.76 244.96V250.88H236.44V244.4C236.44 240.933 234.974 239.2 232.04 239.2C229.107 239.2 227.64 240.933 227.64 244.4V275.68C227.64 279.093 229.107 280.8 232.04 280.8C234.974 280.8 236.44 279.093 236.44 275.68V267.12H244.76V275.04C244.76 279.413 243.64 282.8 241.4 285.2C239.214 287.6 236.014 288.8 231.8 288.8ZM272.781 288.8C268.461 288.8 265.155 287.573 262.861 285.12C260.568 282.667 259.421 279.2 259.421 274.72V245.28C259.421 240.8 260.568 237.333 262.861 234.88C265.155 232.427 268.461 231.2 272.781 231.2C277.101 231.2 280.408 232.427 282.701 234.88C284.995 237.333 286.141 240.8 286.141 245.28V274.72C286.141 279.2 284.995 282.667 282.701 285.12C280.408 287.573 277.101 288.8 272.781 288.8ZM272.781 280.8C275.821 280.8 277.341 278.96 277.341 275.28V244.72C277.341 241.04 275.821 239.2 272.781 239.2C269.741 239.2 268.221 241.04 268.221 244.72V275.28C268.221 278.96 269.741 280.8 272.781 280.8ZM308.483 259.36L298.803 232H308.083L314.003 250.08H314.163L320.243 232H328.563L318.883 259.36L329.043 288H319.763L313.363 268.48H313.203L306.643 288H298.323L308.483 259.36Z" fill="black"/>
<path d="M178.27 304H191.71C196.084 304 199.364 305.173 201.55 307.52C203.737 309.867 204.83 313.307 204.83 317.84V346.16C204.83 350.693 203.737 354.133 201.55 356.48C199.364 358.827 196.084 360 191.71 360H178.27V304ZM191.55 352C192.99 352 194.084 351.573 194.83 350.72C195.63 349.867 196.03 348.48 196.03 346.56V317.44C196.03 315.52 195.63 314.133 194.83 313.28C194.084 312.427 192.99 312 191.55 312H187.07V352H191.55ZM241.97 304H265.97V312H250.77V326.8H262.85V334.8H250.77V352H265.97V360H241.97V304ZM299.913 304H308.793L314.553 347.44H314.713L320.473 304H328.553L320.073 360H308.393L299.913 304Z" fill="black"/>
<defs>
<filter id="filter0_d_24_16" x="390.992" y="250.32" width="480.439" height="100.76" filterUnits="userSpaceOnUse" color-interpolation-filters="sRGB">
<feFlood flood-opacity="0" result="BackgroundImageFix"/>
<feColorMatrix in="SourceAlpha" type="matrix" values="0 0 0 0 0 0 0 0 0 0 0 0 0 0 0 0 0 0 127 0" result="hardAlpha"/>
<feOffset dy="4"/>
<feGaussianBlur stdDeviation="2"/>
<feColorMatrix type="matrix" values="0 0 0 0 0 0 0 0 0 0 0 0 0 0 0 0 0 0 1 0"/>
<feBlend mode="normal" in2="BackgroundImageFix" result="effect1_dropShadow_24_16"/>
<feBlend mode="normal" in="SourceGraphic" in2="effect1_dropShadow_24_16" result="shape"/>
</filter>
<linearGradient id="paint0_linear_24_16" x1="495" y1="0" x2="495" y2="600" gradientUnits="userSpaceOnUse">
<stop stop-color="#2D2D2D"/>
<stop offset="0.468749" stop-color="#3C3C3C"/>
<stop offset="1" stop-color="#2D2D2D"/>
</linearGradient>
</defs>
</svg>
