<svg width="223" height="168" viewBox="0 0 223 168" fill="none" xmlns="http://www.w3.org/2000/svg">
<path d="M0 30C0 13.4315 13.4315 0 30 0H193C209.569 0 223 13.4315 223 30V129C223 145.569 209.569 159 193 159H30C13.4315 159 0 145.569 0 129V30Z" fill="white"/>
<path d="M49.76 72.8C45.4933 72.8 42.24 71.6 40 69.2C37.76 66.7467 36.64 63.2533 36.64 58.72V29.28C36.64 24.7467 37.76 21.28 40 18.88C42.24 16.4267 45.4933 15.2 49.76 15.2C54.0267 15.2 57.28 16.4267 59.52 18.88C61.76 21.28 62.88 24.7467 62.88 29.28V34.08H54.56V28.72C54.56 25.04 53.04 23.2 50 23.2C46.96 23.2 45.44 25.04 45.44 28.72V59.36C45.44 62.9867 46.96 64.8 50 64.8C53.04 64.8 54.56 62.9867 54.56 59.36V48.4H50.16V40.4H62.88V58.72C62.88 63.2533 61.76 66.7467 59.52 69.2C57.28 71.6 54.0267 72.8 49.76 72.8ZM90.81 72.8C86.5967 72.8 83.37 71.6 81.13 69.2C78.9433 66.8 77.85 63.4133 77.85 59.04V28.96C77.85 24.5867 78.9433 21.2 81.13 18.8C83.37 16.4 86.5967 15.2 90.81 15.2C95.0233 15.2 98.2233 16.4 100.41 18.8C102.65 21.2 103.77 24.5867 103.77 28.96V34.88H95.45V28.4C95.45 24.9333 93.9833 23.2 91.05 23.2C88.1167 23.2 86.65 24.9333 86.65 28.4V59.68C86.65 63.0933 88.1167 64.8 91.05 64.8C93.9833 64.8 95.45 63.0933 95.45 59.68V51.12H103.77V59.04C103.77 63.4133 102.65 66.8 100.41 69.2C98.2233 71.6 95.0233 72.8 90.81 72.8ZM131.791 72.8C127.471 72.8 124.165 71.5733 121.871 69.12C119.578 66.6667 118.431 63.2 118.431 58.72V29.28C118.431 24.8 119.578 21.3333 121.871 18.88C124.165 16.4267 127.471 15.2 131.791 15.2C136.111 15.2 139.418 16.4267 141.711 18.88C144.005 21.3333 145.151 24.8 145.151 29.28V58.72C145.151 63.2 144.005 66.6667 141.711 69.12C139.418 71.5733 136.111 72.8 131.791 72.8ZM131.791 64.8C134.831 64.8 136.351 62.96 136.351 59.28V28.72C136.351 25.04 134.831 23.2 131.791 23.2C128.751 23.2 127.231 25.04 127.231 28.72V59.28C127.231 62.96 128.751 64.8 131.791 64.8ZM167.493 43.36L157.812 16H167.092L173.013 34.08H173.172L179.253 16H187.573L177.892 43.36L188.053 72H178.773L172.373 52.48H172.213L165.652 72H157.332L167.493 43.36Z" fill="black"/>
<path d="M37.28 88H50.72C55.0933 88 58.3733 89.1733 60.56 91.52C62.7467 93.8667 63.84 97.3067 63.84 101.84V130.16C63.84 134.693 62.7467 138.133 60.56 140.48C58.3733 142.827 55.0933 144 50.72 144H37.28V88ZM50.56 136C52 136 53.0933 135.573 53.84 134.72C54.64 133.867 55.04 132.48 55.04 130.56V101.44C55.04 99.52 54.64 98.1333 53.84 97.28C53.0933 96.4267 52 96 50.56 96H46.08V136H50.56ZM100.98 88H124.98V96H109.78V110.8H121.86V118.8H109.78V136H124.98V144H100.98V88ZM158.923 88H167.803L173.563 131.44H173.723L179.483 88H187.563L179.083 144H167.403L158.923 88Z" fill="black"/>
</svg>
